{"accessors": {"accessor_buffer_hangar_1_MESH_0": {"bufferView": "bufferView_buffer_hangar_1_MESH_0", "byteOffset": 0, "byteStride": 12, "componentType": 5126, "count": 24, "max": [1.0, 1.0, 2.0], "min": [-1.0, -1.0, 0.0], "type": "VEC3"}, "accessor_buffer_hangar_1_MESH_1": {"bufferView": "bufferView_buffer_hangar_1_MESH_0", "byteOffset": 288, "byteStride": 12, "componentType": 5126, "count": 24, "max": [1.0, 1.0, 1.0], "min": [-1.0, -1.0, -1.0], "type": "VEC3"}, "accessor_buffer_hangar_1_MESH_2": {"bufferView": "bufferView_buffer_hangar_1_MESH_0", "byteOffset": 576, "byteStride": 8, "componentType": 5126, "count": 24, "max": [0.8744134306907654, 0.9945220127701759], "min": [0.10590023547410965, 0.009356439113616943], "type": "VEC2"}, "accessor_buffer_hangar_1_MESH_3": {"bufferView": "bufferView_buffer_hangar_1_MESH_1", "byteOffset": 0, "byteStride": 2, "componentType": 5123, "count": 36, "max": [23], "min": [0], "type": "SCALAR"}}, "asset": {"profile": {"api": "WebGL", "version": "1.0.3"}, "version": "1.0"}, "bufferViews": {"bufferView_buffer_hangar_1_MESH_0": {"buffer": "buffer_combined", "byteLength": 768, "byteOffset": 0, "target": 34962}, "bufferView_buffer_hangar_1_MESH_1": {"buffer": "buffer_combined", "byteLength": 72, "byteOffset": 768, "target": 34963}}, "buffers": {"buffer_combined": {"byteLength": 840, "type": "arraybuffer", "uri": "data:text/plain;base64,"}}, "extensions": {"KHR_materials_common": {"lights": {}}}, "extensionsUsed": ["KHR_materials_common"], "images": {"image_hangar_1_bake.jpg": {"uri": "hangar_1_bake.jpg"}}, "materials": {"material_hanger_2_MAT": {"extensions": {"KHR_materials_common": {"technique": "CONSTANT", "values": {"ambient": [1.0, 1.0, 1.0, 1.0], "diffuse": "texture_hangar_1_baked_tex", "doubleSided": false, "emission": "texture_hangar_1_baked_tex", "shininess": 50, "specular": [0.5, 0.5, 0.5, 1.0], "transparency": 1.0, "transparent": false}}}, "name": "hanger_2_MAT"}}, "meshes": {"mesh_hangar_1_MESH": {"name": "hangar_1_MESH", "primitives": [{"attributes": {"NORMAL": "accessor_buffer_hangar_1_MESH_1", "POSITION": "accessor_buffer_hangar_1_MESH_0", "TEXCOORD_0": "accessor_buffer_hangar_1_MESH_2"}, "indices": "accessor_buffer_hangar_1_MESH_3", "material": "material_hanger_2_MAT", "mode": 4}]}}, "nodes": {"node_hangar_1_obj": {"children": [], "matrix": [100.0, 0.0, 0.0, 0.0, 0.0, 50.0, 0.0, 0.0, 0.0, 0.0, 25.0, 0.0, 222.04185485839844, 365.52825927734375, 3.814697265625e-06, 1.0], "meshes": ["mesh_hangar_1_MESH"], "name": "hangar_1_obj"}, "node_scene_Scene_root": {"children": ["node_hangar_1_obj"], "matrix": [1.0, 0.0, 0.0, 0.0, 0.0, 0.0, -1.0, 0.0, 0.0, 1.0, 0.0, 0.0, 0.0, 0.0, 0.0, 1.0], "name": "node_scene_Scene_root"}}, "samplers": {"sampler_default": {}}, "scene": "scene_Scene", "scenes": {"scene_Scene": {"extras": {"active_camera": "camera_POV_CAM", "background_color": [0.03736812621355057, 0.006104341242462397, 0.03215552866458893], "frames_per_second": 24}, "name": "Scene", "nodes": ["node_scene_Scene_root"]}}, "textures": {"texture_hangar_1_baked_tex": {"format": 35906, "internalFormat": 35906, "sampler": "sampler_default", "source": "image_hangar_1_bake.jpg"}}}