{"accessors": {"accessor_buffer_hangar_1_MESH_0": {"bufferView": "bufferView_buffer_hangar_1_MESH_0", "byteOffset": 0, "byteStride": 12, "componentType": 5126, "count": 24, "max": [1.0, 1.0, 2.0], "min": [-1.0, -1.0, 0.0], "type": "VEC3"}, "accessor_buffer_hangar_1_MESH_1": {"bufferView": "bufferView_buffer_hangar_1_MESH_0", "byteOffset": 288, "byteStride": 12, "componentType": 5126, "count": 24, "max": [1.0, 1.0, 1.0], "min": [-1.0, -1.0, -1.0], "type": "VEC3"}, "accessor_buffer_hangar_1_MESH_2": {"bufferView": "bufferView_buffer_hangar_1_MESH_1", "byteOffset": 0, "byteStride": 2, "componentType": 5123, "count": 36, "max": [23], "min": [0], "type": "SCALAR"}, "accessor_buffer_hangar_2_MESH_0": {"bufferView": "bufferView_buffer_hangar_2_MESH_0", "byteOffset": 0, "byteStride": 12, "componentType": 5126, "count": 24, "max": [0.9382085800170898, 0.8746515512466431, 2.0], "min": [-1.0617914199829102, -1.125348448753357, 0.0], "type": "VEC3"}, "accessor_buffer_hangar_2_MESH_1": {"bufferView": "bufferView_buffer_hangar_2_MESH_0", "byteOffset": 288, "byteStride": 12, "componentType": 5126, "count": 24, "max": [1.0, 1.0, 1.0], "min": [-1.0, -1.0, -1.0], "type": "VEC3"}, "accessor_buffer_hangar_2_MESH_2": {"bufferView": "bufferView_buffer_hangar_2_MESH_1", "byteOffset": 0, "byteStride": 2, "componentType": 5123, "count": 36, "max": [23], "min": [0], "type": "SCALAR"}}, "asset": {"profile": {"api": "WebGL", "version": "1.0.3"}, "version": "1.0"}, "bufferViews": {"bufferView_buffer_hangar_1_MESH_0": {"buffer": "buffer_combined", "byteLength": 576, "byteOffset": 0, "target": 34962}, "bufferView_buffer_hangar_1_MESH_1": {"buffer": "buffer_combined", "byteLength": 72, "byteOffset": 576, "target": 34963}, "bufferView_buffer_hangar_2_MESH_0": {"buffer": "buffer_combined", "byteLength": 576, "byteOffset": 648, "target": 34962}, "bufferView_buffer_hangar_2_MESH_1": {"buffer": "buffer_combined", "byteLength": 72, "byteOffset": 1224, "target": 34963}}, "buffers": {"buffer_combined": {"byteLength": 1296, "type": "arraybuffer", "uri": "data:text/plain;base64,"}}, "extensions": {"KHR_materials_common": {"lights": {}}}, "extensionsUsed": ["KHR_materials_common"], "materials": {"material_hanger_MAT": {"extensions": {"KHR_materials_common": {"technique": "CONSTANT", "values": {"ambient": [1.0, 1.0, 1.0, 1.0], "diffuse": [0.19695405662059784, 0.19695405662059784, 0.19695405662059784, 1.0], "doubleSided": false, "emission": [0.19695405662059784, 0.19695405662059784, 0.19695405662059784, 1.0], "shininess": 50, "specular": [0.5, 0.5, 0.5, 1.0], "transparency": 1.0, "transparent": false}}}, "name": "hanger_MAT"}}, "meshes": {"mesh_hangar_1_MESH": {"name": "hangar_1_MESH", "primitives": [{"attributes": {"NORMAL": "accessor_buffer_hangar_1_MESH_1", "POSITION": "accessor_buffer_hangar_1_MESH_0"}, "indices": "accessor_buffer_hangar_1_MESH_2", "material": "material_hanger_MAT", "mode": 4}]}, "mesh_hangar_2_MESH": {"name": "hangar_2_MESH", "primitives": [{"attributes": {"NORMAL": "accessor_buffer_hangar_2_MESH_1", "POSITION": "accessor_buffer_hangar_2_MESH_0"}, "indices": "accessor_buffer_hangar_2_MESH_2", "material": "material_hanger_MAT", "mode": 4}]}}, "nodes": {"node_hangar_1_obj": {"children": [], "matrix": [100.0, 0.0, 0.0, 0.0, 0.0, 50.0, 0.0, 0.0, 0.0, 0.0, 25.0, 0.0, 175.3698272705078, 365.52825927734375, 3.814697265625e-06, 1.0], "meshes": ["mesh_hangar_1_MESH"], "name": "hangar_1_obj"}, "node_hangar_2_obj": {"children": [], "matrix": [-4.371138857095502e-06, 100.0, 0.0, 0.0, -50.0, -2.185569428547751e-06, 0.0, 0.0, 0.0, 0.0, 25.0, 0.0, -236.33763122558594, -118.25692749023438, 3.814697265625e-06, 1.0], "meshes": ["mesh_hangar_2_MESH"], "name": "hangar_2_obj"}, "node_scene_Scene_root": {"children": ["node_hangar_2_obj", "node_hangar_1_obj"], "matrix": [1.0, 0.0, 0.0, 0.0, 0.0, 0.0, -1.0, 0.0, 0.0, 1.0, 0.0, 0.0, 0.0, 0.0, 0.0, 1.0], "name": "node_scene_Scene_root"}}, "samplers": {"sampler_default": {}}, "scene": "scene_Scene", "scenes": {"scene_Scene": {"extras": {"active_camera": "camera_POV_CAM", "background_color": [0.05087608844041824, 0.05087608844041824, 0.05087608844041824], "frames_per_second": 24}, "name": "Scene", "nodes": ["node_scene_Scene_root"]}}}