{
    "accessors" : [
        {
            "bufferView" : 0, 
            "componentType" : 5121, 
            "count" : 6, 
            "max" : [
                3
            ], 
            "min" : [
                0
            ], 
            "type" : "SCALAR"
        }, 
        {
            "bufferView" : 1, 
            "componentType" : 5126, 
            "count" : 4, 
            "max" : [
                30.5, 
                0.0, 
                712.2381591796875
            ], 
            "min" : [
                -30.5, 
                0.0, 
                -269.7618713378906
            ], 
            "type" : "VEC3"
        }, 
        {
            "bufferView" : 2, 
            "componentType" : 5126, 
            "count" : 4, 
            "max" : [
                0.0, 
                1.0, 
                -0.0
            ], 
            "min" : [
                0.0, 
                1.0, 
                -0.0
            ], 
            "type" : "VEC3"
        }, 
        {
            "bufferView" : 3, 
            "componentType" : 5126, 
            "count" : 4, 
            "max" : [
                -1.0, 
                0.0, 
                -8.321399945998564e-06, 
                1.0
            ], 
            "min" : [
                -1.0, 
                0.0, 
                -8.321399945998564e-06, 
                1.0
            ], 
            "type" : "VEC4"
        }, 
        {
            "bufferView" : 4, 
            "componentType" : 5126, 
            "count" : 4, 
            "max" : [
                0.7466261386871338, 
                0.9999295473098755
            ], 
            "min" : [
                0.25007015466690063, 
                7.045269012451172e-05
            ], 
            "type" : "VEC2"
        }, 
        {
            "bufferView" : 5, 
            "componentType" : 5121, 
            "count" : 6, 
            "max" : [
                3
            ], 
            "min" : [
                0
            ], 
            "type" : "SCALAR"
        }, 
        {
            "bufferView" : 6, 
            "componentType" : 5126, 
            "count" : 4, 
            "max" : [
                723.80615234375, 
                0.0, 
                30.500011444091797
            ], 
            "min" : [
                -258.1938781738281, 
                0.0, 
                -30.500030517578125
            ], 
            "type" : "VEC3"
        }, 
        {
            "bufferView" : 7, 
            "componentType" : 5126, 
            "count" : 4, 
            "max" : [
                -0.0, 
                1.0, 
                -0.0
            ], 
            "min" : [
                -0.0, 
                1.0, 
                -0.0
            ], 
            "type" : "VEC3"
        }, 
        {
            "bufferView" : 8, 
            "componentType" : 5126, 
            "count" : 4, 
            "max" : [
                2.591121847217437e-05, 
                0.0, 
                1.0, 
                1.0
            ], 
            "min" : [
                2.591121847217437e-05, 
                0.0, 
                1.0, 
                1.0
            ], 
            "type" : "VEC4"
        }, 
        {
            "bufferView" : 9, 
            "componentType" : 5126, 
            "count" : 4, 
            "max" : [
                0.7377318143844604, 
                1.0
            ], 
            "min" : [
                0.2624705135822296, 
                0.00014340877532958984
            ], 
            "type" : "VEC2"
        }
    ], 
    "asset" : {
        "generator" : "Khronos Blender glTF 2.0 exporter", 
        "version" : "2.0"
    }, 
    "bufferViews" : [
        {
            "buffer" : 0, 
            "byteLength" : 6, 
            "byteOffset" : 0, 
            "target" : 34963
        }, 
        {
            "buffer" : 0, 
            "byteLength" : 48, 
            "byteOffset" : 8, 
            "target" : 34962
        }, 
        {
            "buffer" : 0, 
            "byteLength" : 48, 
            "byteOffset" : 56, 
            "target" : 34962
        }, 
        {
            "buffer" : 0, 
            "byteLength" : 64, 
            "byteOffset" : 104, 
            "target" : 34962
        }, 
        {
            "buffer" : 0, 
            "byteLength" : 32, 
            "byteOffset" : 168, 
            "target" : 34962
        }, 
        {
            "buffer" : 0, 
            "byteLength" : 6, 
            "byteOffset" : 200, 
            "target" : 34963
        }, 
        {
            "buffer" : 0, 
            "byteLength" : 48, 
            "byteOffset" : 208, 
            "target" : 34962
        }, 
        {
            "buffer" : 0, 
            "byteLength" : 48, 
            "byteOffset" : 256, 
            "target" : 34962
        }, 
        {
            "buffer" : 0, 
            "byteLength" : 64, 
            "byteOffset" : 304, 
            "target" : 34962
        }, 
        {
            "buffer" : 0, 
            "byteLength" : 32, 
            "byteOffset" : 368, 
            "target" : 34962
        }
    ], 
    "buffers" : [
        {
            "byteLength" : 400, 
            "uri" : "data:application/octet-stream;base64,"
        }
    ], 
    "extensionsUsed" : [
        "KHR_materials_unlit"
    ], 
    "images" : [
        {
            "uri" : "runway_x_color.png"
        }, 
        {
            "uri" : "runway_z_color.png"
        }
    ], 
    "materials" : [
        {
            "extensions" : {
                "KHR_materials_unlit" : {}
            }, 
            "name" : "runway_x_MAT_export", 
            "pbrMetallicRoughness" : {
                "baseColorFactor" : [
                    0.800000011920929, 
                    0.800000011920929, 
                    0.800000011920929, 
                    1.0
                ], 
                "baseColorTexture" : {
                    "index" : 0
                }, 
                "metallicFactor" : 0.0, 
                "roughnessFactor" : 0.9
            }
        }, 
        {
            "extensions" : {
                "KHR_materials_unlit" : {}
            }, 
            "name" : "runway_z_MAT_export", 
            "pbrMetallicRoughness" : {
                "baseColorFactor" : [
                    0.800000011920929, 
                    0.800000011920929, 
                    0.800000011920929, 
                    1.0
                ], 
                "baseColorTexture" : {
                    "index" : 1
                }, 
                "metallicFactor" : 0.0, 
                "roughnessFactor" : 0.9
            }
        }
    ], 
    "meshes" : [
        {
            "name" : "runway_z_MESH", 
            "primitives" : [
                {
                    "attributes" : {
                        "NORMAL" : 2, 
                        "POSITION" : 1, 
                        "TANGENT" : 3, 
                        "TEXCOORD_0" : 4
                    }, 
                    "indices" : 0, 
                    "material" : 1
                }
            ]
        }, 
        {
            "name" : "runway_x_MESH", 
            "primitives" : [
                {
                    "attributes" : {
                        "NORMAL" : 7, 
                        "POSITION" : 6, 
                        "TANGENT" : 8, 
                        "TEXCOORD_0" : 9
                    }, 
                    "indices" : 5, 
                    "material" : 0
                }
            ]
        }
    ], 
    "nodes" : [
        {
            "mesh" : 1, 
            "name" : "runway_x_obj", 
            "translation" : [
                -83.20812225341797, 
                0.0, 
                -50.99909973144531
            ]
        }, 
        {
            "mesh" : 0, 
            "name" : "runway_z_obj", 
            "translation" : [
                -50.81044006347656, 
                -0.10000000149011612, 
                -74.30523681640625
            ]
        }
    ], 
    "samplers" : [
        {}
    ], 
    "scene" : 0, 
    "scenes" : [
        {
            "name" : "Scene", 
            "nodes" : [
                0, 
                1
            ]
        }
    ], 
    "textures" : [
        {
            "sampler" : 0, 
            "source" : 0
        }, 
        {
            "sampler" : 0, 
            "source" : 1
        }
    ]
}
