{"accessors": {"accessor_buffer_Cube.002_0": {"bufferView": "bufferView_buffer_Cube.002_0", "byteOffset": 0, "byteStride": 12, "componentType": 5126, "count": 16, "max": [7.13847017288208, 7.13847017288208, 58.00271224975586], "min": [-7.13847017288208, -7.13847017288208, 56.49110794067383], "type": "VEC3"}, "accessor_buffer_Cube.002_1": {"bufferView": "bufferView_buffer_Cube.002_0", "byteOffset": 192, "byteStride": 12, "componentType": 5126, "count": 16, "max": [0.9409025311470032, 0.9409024119377136, 0], "min": [-0.9409025311470032, -0.9409024119377136, -0.3386778235435486], "type": "VEC3"}, "accessor_buffer_Cube.002_2": {"bufferView": "bufferView_buffer_Cube.002_0", "byteOffset": 384, "byteStride": 8, "componentType": 5126, "count": 16, "max": [0.565823495388031, 0.7363347709178925], "min": [0.26366519927978516, 0.434176504611969], "type": "VEC2"}, "accessor_buffer_Cube.002_3": {"bufferView": "bufferView_buffer_Cube.002_1", "byteOffset": 0, "byteStride": 2, "componentType": 5123, "count": 24, "max": [15], "min": [0], "type": "SCALAR"}, "accessor_buffer_Cube_0": {"bufferView": "bufferView_buffer_Cube_0", "byteOffset": 0, "byteStride": 12, "componentType": 5126, "count": 240, "max": [8.131879806518555, 8.131879806518555, 65.45539855957031], "min": [-8.131879806518555, -8.131879806518555, -6.738065719604492], "type": "VEC3"}, "accessor_buffer_Cube_1": {"bufferView": "bufferView_buffer_Cube_0", "byteOffset": 2880, "byteStride": 12, "componentType": 5126, "count": 240, "max": [1.0, 1.0, 1.0], "min": [-1.0, -1.0, -0.9999999403953552], "type": "VEC3"}, "accessor_buffer_Cube_2": {"bufferView": "bufferView_buffer_Cube_0", "byteOffset": 5760, "byteStride": 8, "componentType": 5126, "count": 240, "max": [0.9998481273651123, 0.9998480515059782], "min": [0.0001519484940217808, 0.06422847509384155], "type": "VEC2"}, "accessor_buffer_Cube_3": {"bufferView": "bufferView_buffer_Cube_1", "byteOffset": 0, "byteStride": 2, "componentType": 5123, "count": 492, "max": [239], "min": [0], "type": "SCALAR"}}, "asset": {"profile": {"api": "WebGL", "version": "1.0.3"}, "version": "1.0"}, "bufferViews": {"bufferView_buffer_Cube.002_0": {"buffer": "buffer_combined", "byteLength": 512, "byteOffset": 0, "target": 34962}, "bufferView_buffer_Cube.002_1": {"buffer": "buffer_combined", "byteLength": 48, "byteOffset": 512, "target": 34963}, "bufferView_buffer_Cube_0": {"buffer": "buffer_combined", "byteLength": 7680, "byteOffset": 560, "target": 34962}, "bufferView_buffer_Cube_1": {"buffer": "buffer_combined", "byteLength": 984, "byteOffset": 8240, "target": 34963}}, "buffers": {"buffer_combined": {"byteLength": 9224, "type": "arraybuffer", "uri": "data:text/plain;base64,"}}, "extensions": {"KHR_materials_common": {"lights": {}}}, "extensionsUsed": ["KHR_materials_common"], "images": {"image_tower_bake.jpg": {"uri": "tower_bake.jpg"}}, "materials": {"material_tower_baked": {"extensions": {"KHR_materials_common": {"technique": "CONSTANT", "values": {"ambient": [1.0, 1.0, 1.0, 1.0], "diffuse": "texture_tower_baked_tex", "doubleSided": false, "emission": "texture_tower_baked_tex", "shininess": 50, "specular": [0.5, 0.5, 0.5, 1.0], "transparency": 1.0, "transparent": false}}}, "name": "tower_baked"}, "material_tower_glass": {"extensions": {"KHR_materials_common": {"technique": "PHONG", "values": {"ambient": [1.0, 1.0, 1.0, 1.0], "diffuse": [0.06396109610795975, 0.06396109610795975, 0.06396109610795975, 1.0], "doubleSided": false, "emission": [0.0, 0.0, 0.0, 1.0], "shininess": 50, "specular": [0.5, 0.5, 0.5, 1.0], "transparency": 1.0, "transparent": false}}}, "name": "tower_glass"}}, "meshes": {"mesh_Cube": {"name": "Cube", "primitives": [{"attributes": {"NORMAL": "accessor_buffer_Cube_1", "POSITION": "accessor_buffer_Cube_0", "TEXCOORD_0": "accessor_buffer_Cube_2"}, "indices": "accessor_buffer_Cube_3", "material": "material_tower_baked", "mode": 4}]}, "mesh_Cube.002": {"name": "Cube.002", "primitives": [{"attributes": {"NORMAL": "accessor_buffer_Cube.002_1", "POSITION": "accessor_buffer_Cube.002_0", "TEXCOORD_0": "accessor_buffer_Cube.002_2"}, "indices": "accessor_buffer_Cube.002_3", "material": "material_tower_glass", "mode": 4}]}}, "nodes": {"node_scene_Scene_root": {"children": ["node_tower_glass_obj", "node_tower_obj"], "matrix": [1.0, 0.0, 0.0, 0.0, 0.0, 0.0, -1.0, 0.0, 0.0, 1.0, 0.0, 0.0, 0.0, 0.0, 0.0, 1.0], "name": "node_scene_Scene_root"}, "node_tower_glass_obj": {"children": [], "matrix": [1.0, 0.0, 0.0, 0.0, 0.0, 1.0, 0.0, 0.0, 0.0, 0.0, 1.0, 0.0, 113.72470092773438, -114.97565460205078, 6.667856693267822, 1.0], "meshes": ["mesh_Cube.002"], "name": "tower_glass_obj"}, "node_tower_obj": {"children": [], "matrix": [1.0, 0.0, 0.0, 0.0, 0.0, 1.0, 0.0, 0.0, 0.0, 0.0, 1.0, 0.0, 113.72470092773438, -114.97565460205078, 6.667856693267822, 1.0], "meshes": ["mesh_Cube"], "name": "tower_obj"}}, "samplers": {"sampler_default": {}}, "scene": "scene_Scene", "scenes": {"scene_Scene": {"extras": {"active_camera": "camera_POV_CAM", "background_color": [0.03736812621355057, 0.006104341242462397, 0.03215552866458893], "frames_per_second": 24}, "name": "Scene", "nodes": ["node_scene_Scene_root"]}}, "textures": {"texture_tower_baked_tex": {"format": 35906, "internalFormat": 35906, "sampler": "sampler_default", "source": "image_tower_bake.jpg"}}}