{"accessors": {"accessor_buffer_ground_MESH_0": {"bufferView": "bufferView_buffer_ground_MESH_0", "byteOffset": 0, "byteStride": 12, "componentType": 5126, "count": 4, "max": [1.0, 1.0, 0], "min": [-1.0, -1.0, 0.0], "type": "VEC3"}, "accessor_buffer_ground_MESH_1": {"bufferView": "bufferView_buffer_ground_MESH_0", "byteOffset": 48, "byteStride": 12, "componentType": 5126, "count": 4, "max": [0, 0, 1.0], "min": [0.0, 0.0, 1.0], "type": "VEC3"}, "accessor_buffer_ground_MESH_2": {"bufferView": "bufferView_buffer_ground_MESH_0", "byteOffset": 96, "byteStride": 8, "componentType": 5126, "count": 4, "max": [0.9368387460708618, 0.9657956957817078], "min": [0.0523829460144043, 0.0813400149345398], "type": "VEC2"}, "accessor_buffer_ground_MESH_3": {"bufferView": "bufferView_buffer_ground_MESH_1", "byteOffset": 0, "byteStride": 2, "componentType": 5123, "count": 6, "max": [3], "min": [0], "type": "SCALAR"}, "accessor_buffer_runway_x_MESH_0": {"bufferView": "bufferView_buffer_runway_x_MESH_0", "byteOffset": 0, "byteStride": 12, "componentType": 5126, "count": 4, "max": [756.7218017578125, 30.500030517578125, 0], "min": [-269.9354553222656, -30.500011444091797, 0.0], "type": "VEC3"}, "accessor_buffer_runway_x_MESH_1": {"bufferView": "bufferView_buffer_runway_x_MESH_0", "byteOffset": 48, "byteStride": 12, "componentType": 5126, "count": 4, "max": [0, 0, 1.0], "min": [0.0, 0.0, 1.0], "type": "VEC3"}, "accessor_buffer_runway_x_MESH_2": {"bufferView": "bufferView_buffer_runway_x_MESH_0", "byteOffset": 96, "byteStride": 8, "componentType": 5126, "count": 4, "max": [0.7377318143844604, 1.0], "min": [0.2624705135822296, 0.00014340877532958984], "type": "VEC2"}, "accessor_buffer_runway_x_MESH_3": {"bufferView": "bufferView_buffer_runway_x_MESH_1", "byteOffset": 0, "byteStride": 2, "componentType": 5123, "count": 6, "max": [3], "min": [0], "type": "SCALAR"}, "accessor_buffer_runway_z_MESH_0": {"bufferView": "bufferView_buffer_runway_z_MESH_0", "byteOffset": 0, "byteStride": 12, "componentType": 5126, "count": 4, "max": [30.5, 269.9354553222656, 0], "min": [-30.5, -712.6964111328125, 0.0], "type": "VEC3"}, "accessor_buffer_runway_z_MESH_1": {"bufferView": "bufferView_buffer_runway_z_MESH_0", "byteOffset": 48, "byteStride": 12, "componentType": 5126, "count": 4, "max": [0, 0, 1.0], "min": [0.0, 0.0, 1.0], "type": "VEC3"}, "accessor_buffer_runway_z_MESH_2": {"bufferView": "bufferView_buffer_runway_z_MESH_0", "byteOffset": 96, "byteStride": 8, "componentType": 5126, "count": 4, "max": [0.7466261386871338, 0.9999295473098755], "min": [0.25007015466690063, 7.045269012451172e-05], "type": "VEC2"}, "accessor_buffer_runway_z_MESH_3": {"bufferView": "bufferView_buffer_runway_z_MESH_1", "byteOffset": 0, "byteStride": 2, "componentType": 5123, "count": 6, "max": [3], "min": [0], "type": "SCALAR"}}, "asset": {"profile": {"api": "WebGL", "version": "1.0.3"}, "version": "1.0"}, "bufferViews": {"bufferView_buffer_ground_MESH_0": {"buffer": "buffer_ground_MESH", "byteLength": 128, "byteOffset": 0, "target": 34962}, "bufferView_buffer_ground_MESH_1": {"buffer": "buffer_ground_MESH", "byteLength": 12, "byteOffset": 128, "target": 34963}, "bufferView_buffer_runway_x_MESH_0": {"buffer": "buffer_runway_x_MESH", "byteLength": 128, "byteOffset": 0, "target": 34962}, "bufferView_buffer_runway_x_MESH_1": {"buffer": "buffer_runway_x_MESH", "byteLength": 12, "byteOffset": 128, "target": 34963}, "bufferView_buffer_runway_z_MESH_0": {"buffer": "buffer_runway_z_MESH", "byteLength": 128, "byteOffset": 0, "target": 34962}, "bufferView_buffer_runway_z_MESH_1": {"buffer": "buffer_runway_z_MESH", "byteLength": 12, "byteOffset": 128, "target": 34963}}, "buffers": {"buffer_ground_MESH": {"byteLength": 140, "type": "arraybuffer", "uri": "data:text/plain;base64,"}, "buffer_runway_x_MESH": {"byteLength": 140, "type": "arraybuffer", "uri": "data:text/plain;base64,"}, "buffer_runway_z_MESH": {"byteLength": 140, "type": "arraybuffer", "uri": "data:text/plain;base64,"}}, "extensions": {"KHR_materials_common": {"lights": {}}}, "extensionsUsed": ["KHR_materials_common"], "images": {"image_grass-tile-3.jpg": {"uri": "grass-tile-3.jpg"}, "image_runway_x_color.png": {"uri": "runway_x_color.png"}, "image_runway_z_color.png": {"uri": "runway_z_color.png"}}, "materials": {"material_ground_MAT": {"extensions": {"KHR_materials_common": {"technique": "CONSTANT", "values": {"ambient": [1.0, 1.0, 1.0, 1.0], "diffuse": "texture_grass_tile_tex", "doubleSided": false, "emission": "texture_grass_tile_tex", "shininess": 50, "specular": [0.3541666567325592, 0.3541666567325592, 0.3541666567325592, 1.0], "transparency": 1.0, "transparent": false}}}, "name": "ground_MAT"}, "material_runway_x_MAT": {"extensions": {"KHR_materials_common": {"technique": "CONSTANT", "values": {"ambient": [1.0, 1.0, 1.0, 1.0], "diffuse": "texture_runway_x_tex", "doubleSided": false, "emission": "texture_runway_x_tex", "shininess": 50, "specular": [0.5, 0.5, 0.5, 1.0], "transparency": 1.0, "transparent": false}}}, "name": "runway_x_MAT"}, "material_runway_z_MAT": {"extensions": {"KHR_materials_common": {"technique": "CONSTANT", "values": {"ambient": [1.0, 1.0, 1.0, 1.0], "diffuse": "texture_Texture", "doubleSided": false, "emission": "texture_Texture", "shininess": 50, "specular": [0.5, 0.5, 0.5, 1.0], "transparency": 1.0, "transparent": false}}}, "name": "runway_z_MAT"}}, "meshes": {"mesh_ground_MESH": {"name": "ground_MESH", "primitives": [{"attributes": {"NORMAL": "accessor_buffer_ground_MESH_1", "POSITION": "accessor_buffer_ground_MESH_0", "TEXCOORD_0": "accessor_buffer_ground_MESH_2"}, "indices": "accessor_buffer_ground_MESH_3", "material": "material_ground_MAT", "mode": 4}]}, "mesh_runway_x_MESH": {"name": "runway_x_MESH", "primitives": [{"attributes": {"NORMAL": "accessor_buffer_runway_x_MESH_1", "POSITION": "accessor_buffer_runway_x_MESH_0", "TEXCOORD_0": "accessor_buffer_runway_x_MESH_2"}, "indices": "accessor_buffer_runway_x_MESH_3", "material": "material_runway_x_MAT", "mode": 4}]}, "mesh_runway_z_MESH": {"name": "runway_z_MESH", "primitives": [{"attributes": {"NORMAL": "accessor_buffer_runway_z_MESH_1", "POSITION": "accessor_buffer_runway_z_MESH_0", "TEXCOORD_0": "accessor_buffer_runway_z_MESH_2"}, "indices": "accessor_buffer_runway_z_MESH_3", "material": "material_runway_z_MAT", "mode": 4}]}}, "nodes": {"node_ground_obj": {"children": [], "matrix": [640.0, 0.0, 0.0, 0.0, 0.0, 640.0, 0.0, 0.0, 0.0, 0.0, 1.0, 0.0, 0.2402995526790619, -0.1846330463886261, -0.15000000596046448, 1.0], "meshes": ["mesh_ground_MESH"], "name": "ground_obj"}, "node_runway_x_obj": {"children": [], "matrix": [0.9565023183822632, 0.0, 0.0, 0.0, 0.0, 1.0, 0.0, 0.0, 0.0, 0.0, 1.0, 0.0, -83.20812225341797, 50.99909973144531, 0.0, 1.0], "meshes": ["mesh_runway_x_MESH"], "name": "runway_x_obj"}, "node_runway_z_obj": {"children": [], "matrix": [1.0, 0.0, 0.0, 0.0, 0.0, 0.9993569850921631, 0.0, 0.0, 0.0, 0.0, 1.0, 0.0, -50.81044006347656, 74.30523681640625, -0.10000000149011612, 1.0], "meshes": ["mesh_runway_z_MESH"], "name": "runway_z_obj"}, "node_scene_Scene_root": {"children": ["node_runway_x_obj", "node_runway_z_obj", "node_ground_obj"], "matrix": [1.0, 0.0, 0.0, 0.0, 0.0, 0.0, -1.0, 0.0, 0.0, 1.0, 0.0, 0.0, 0.0, 0.0, 0.0, 1.0], "name": "node_scene_Scene_root"}}, "samplers": {"sampler_default": {}}, "scene": "scene_Scene", "scenes": {"scene_Scene": {"extras": {"active_camera": "camera_POV_CAM", "background_color": [0.05087608844041824, 0.05087608844041824, 0.05087608844041824], "frames_per_second": 24}, "name": "Scene", "nodes": ["node_scene_Scene_root"]}}, "textures": {"texture_Texture": {"format": 35906, "internalFormat": 35906, "sampler": "sampler_default", "source": "image_runway_z_color.png"}, "texture_grass_tile_tex": {"format": 35906, "internalFormat": 35906, "sampler": "sampler_default", "source": "image_grass-tile-3.jpg"}, "texture_runway_x_tex": {"format": 35906, "internalFormat": 35906, "sampler": "sampler_default", "source": "image_runway_x_color.png"}}}