{"accessors": {"accessor_buffer_Cube.002_0": {"bufferView": "bufferView_buffer_Cube.002_0", "byteOffset": 0, "byteStride": 12, "componentType": 5126, "count": 24, "max": [6.082762241363525, 1.0, 0.06105854734778404], "min": [-6.082762241363525, -1.0, -0.06105854734778404], "type": "VEC3"}, "accessor_buffer_Cube.002_1": {"bufferView": "bufferView_buffer_Cube.002_0", "byteOffset": 288, "byteStride": 12, "componentType": 5126, "count": 24, "max": [0.5773491859436035, 0.5773491859436035, 0.5773491859436035], "min": [-0.5773491859436035, -0.5773491859436035, -0.5773491859436035], "type": "VEC3"}, "accessor_buffer_Cube.002_2": {"bufferView": "bufferView_buffer_Cube.002_0", "byteOffset": 576, "byteStride": 8, "componentType": 5126, "count": 24, "max": [0.9849252700805664, 0.9991793543449603], "min": [0.0008783761295489967, 0.0008206963539123535], "type": "VEC2"}, "accessor_buffer_Cube.002_3": {"bufferView": "bufferView_buffer_Cube.002_1", "byteOffset": 0, "byteStride": 2, "componentType": 5123, "count": 36, "max": [23], "min": [0], "type": "SCALAR"}, "accessor_buffer_Cube.004_0": {"bufferView": "bufferView_buffer_Cube.004_0", "byteOffset": 0, "byteStride": 12, "componentType": 5126, "count": 24, "max": [6.082762241363525, 1.0, 0.06105854734778404], "min": [-6.082762241363525, -1.0, -0.06105854734778404], "type": "VEC3"}, "accessor_buffer_Cube.004_1": {"bufferView": "bufferView_buffer_Cube.004_0", "byteOffset": 288, "byteStride": 12, "componentType": 5126, "count": 24, "max": [0.5773491859436035, 0.5773491859436035, 0.5773491859436035], "min": [-0.5773491859436035, -0.5773491859436035, -0.5773491859436035], "type": "VEC3"}, "accessor_buffer_Cube.004_2": {"bufferView": "bufferView_buffer_Cube.004_0", "byteOffset": 576, "byteStride": 8, "componentType": 5126, "count": 24, "max": [0.9854525327682495, 0.9991793543449603], "min": [0.3557426631450653, 0.0008206963539123535], "type": "VEC2"}, "accessor_buffer_Cube.004_3": {"bufferView": "bufferView_buffer_Cube.004_1", "byteOffset": 0, "byteStride": 2, "componentType": 5123, "count": 36, "max": [23], "min": [0], "type": "SCALAR"}, "accessor_buffer_Cube.005_0": {"bufferView": "bufferView_buffer_Cube.005_0", "byteOffset": 0, "byteStride": 12, "componentType": 5126, "count": 24, "max": [1.8008320331573486, 0.39328181743621826, 0.02890413999557495], "min": [-1.8008320331573486, -0.39328181743621826, -0.02890413999557495], "type": "VEC3"}, "accessor_buffer_Cube.005_1": {"bufferView": "bufferView_buffer_Cube.005_0", "byteOffset": 288, "byteStride": 12, "componentType": 5126, "count": 24, "max": [0.5773491859436035, 0.5773491859436035, 0.5773491859436035], "min": [-0.5773491859436035, -0.5773491859436035, -0.5773491859436035], "type": "VEC3"}, "accessor_buffer_Cube.005_2": {"bufferView": "bufferView_buffer_Cube.005_0", "byteOffset": 576, "byteStride": 8, "componentType": 5126, "count": 24, "max": [0.9922870993614197, 0.9991793543449603], "min": [0.7106069326400757, 0.0971948504447937], "type": "VEC2"}, "accessor_buffer_Cube.005_3": {"bufferView": "bufferView_buffer_Cube.005_1", "byteOffset": 0, "byteStride": 2, "componentType": 5123, "count": 36, "max": [23], "min": [0], "type": "SCALAR"}, "accessor_buffer_Cube.006_0": {"bufferView": "bufferView_buffer_Cube.006_0", "byteOffset": 0, "byteStride": 12, "componentType": 5126, "count": 24, "max": [1.8008320331573486, 0.39328181743621826, 0.02890413999557495], "min": [-1.8008320331573486, -0.39328181743621826, -0.02890413999557495], "type": "VEC3"}, "accessor_buffer_Cube.006_1": {"bufferView": "bufferView_buffer_Cube.006_0", "byteOffset": 288, "byteStride": 12, "componentType": 5126, "count": 24, "max": [0.5773491859436035, 0.5773491859436035, 0.5773491859436035], "min": [-0.5773491859436035, -0.5773491859436035, -0.5773491859436035], "type": "VEC3"}, "accessor_buffer_Cube.006_2": {"bufferView": "bufferView_buffer_Cube.006_0", "byteOffset": 576, "byteStride": 8, "componentType": 5126, "count": 24, "max": [0.9991216659545898, 0.9991793543449603], "min": [0.7248342037200928, 0.0971948504447937], "type": "VEC2"}, "accessor_buffer_Cube.006_3": {"bufferView": "bufferView_buffer_Cube.006_1", "byteOffset": 0, "byteStride": 2, "componentType": 5123, "count": 36, "max": [23], "min": [0], "type": "SCALAR"}, "accessor_buffer_Cube.007_0": {"bufferView": "bufferView_buffer_Cube.007_0", "byteOffset": 0, "byteStride": 12, "componentType": 5126, "count": 24, "max": [0.030492842197418213, 0.22058308124542236, 1.0], "min": [-0.030492842197418213, -0.22058308124542236, -1.0], "type": "VEC3"}, "accessor_buffer_Cube.007_1": {"bufferView": "bufferView_buffer_Cube.007_0", "byteOffset": 288, "byteStride": 12, "componentType": 5126, "count": 24, "max": [0.5773491859436035, 0.5773491859436035, 0.5773491859436035], "min": [-0.5773491859436035, -0.5773491859436035, -0.5773491859436035], "type": "VEC3"}, "accessor_buffer_Cube.007_2": {"bufferView": "bufferView_buffer_Cube.007_0", "byteOffset": 576, "byteStride": 8, "componentType": 5126, "count": 24, "max": [0.9605816602706909, 0.9991793543449603], "min": [0.7106069326400757, 0.0748591423034668], "type": "VEC2"}, "accessor_buffer_Cube.007_3": {"bufferView": "bufferView_buffer_Cube.007_1", "byteOffset": 0, "byteStride": 2, "componentType": 5123, "count": 36, "max": [23], "min": [0], "type": "SCALAR"}, "accessor_buffer_Cube.008_0": {"bufferView": "bufferView_buffer_Cube.008_0", "byteOffset": 0, "byteStride": 12, "componentType": 5126, "count": 24, "max": [0.030492842197418213, 0.22058308124542236, 1.0], "min": [-0.030492842197418213, -0.22058308124542236, -1.0], "type": "VEC3"}, "accessor_buffer_Cube.008_1": {"bufferView": "bufferView_buffer_Cube.008_0", "byteOffset": 288, "byteStride": 12, "componentType": 5126, "count": 24, "max": [0.5773491859436035, 0.5773491859436035, 0.5773491859436035], "min": [-0.5773491859436035, -0.5773491859436035, -0.5773491859436035], "type": "VEC3"}, "accessor_buffer_Cube.008_2": {"bufferView": "bufferView_buffer_Cube.008_0", "byteOffset": 576, "byteStride": 8, "componentType": 5126, "count": 24, "max": [0.9676952958106995, 0.9991793543449603], "min": [0.7106069326400757, 0.0748591423034668], "type": "VEC2"}, "accessor_buffer_Cube.008_3": {"bufferView": "bufferView_buffer_Cube.008_1", "byteOffset": 0, "byteStride": 2, "componentType": 5123, "count": 36, "max": [23], "min": [0], "type": "SCALAR"}, "accessor_buffer_Cube.009_0": {"bufferView": "bufferView_buffer_Cube.009_0", "byteOffset": 0, "byteStride": 12, "componentType": 5126, "count": 24, "max": [0.02688652276992798, 2.674745559692383, 0.038844939321279526], "min": [-0.02688652276992798, -2.674745559692383, -0.038844939321279526], "type": "VEC3"}, "accessor_buffer_Cube.009_1": {"bufferView": "bufferView_buffer_Cube.009_0", "byteOffset": 288, "byteStride": 12, "componentType": 5126, "count": 24, "max": [0.5773491859436035, 0.5773491859436035, 0.5773491859436035], "min": [-0.5773491859436035, -0.5773491859436035, -0.5773491859436035], "type": "VEC3"}, "accessor_buffer_Cube.009_2": {"bufferView": "bufferView_buffer_Cube.009_0", "byteOffset": 576, "byteStride": 8, "componentType": 5126, "count": 24, "max": [0.9542410969734192, 0.8334089070558548], "min": [0.780626654624939, 0.21733713150024414], "type": "VEC2"}, "accessor_buffer_Cube.009_3": {"bufferView": "bufferView_buffer_Cube.009_1", "byteOffset": 0, "byteStride": 2, "componentType": 5123, "count": 36, "max": [23], "min": [0], "type": "SCALAR"}, "accessor_buffer_Cube.012_0": {"bufferView": "bufferView_buffer_Cube.012_0", "byteOffset": 0, "byteStride": 12, "componentType": 5126, "count": 24, "max": [0.02688652276992798, 2.674745559692383, 0.038844939321279526], "min": [-0.02688652276992798, -2.674745559692383, -0.038844939321279526], "type": "VEC3"}, "accessor_buffer_Cube.012_1": {"bufferView": "bufferView_buffer_Cube.012_0", "byteOffset": 288, "byteStride": 12, "componentType": 5126, "count": 24, "max": [0.5773491859436035, 0.5773491859436035, 0.5773491859436035], "min": [-0.5773491859436035, -0.5773491859436035, -0.5773491859436035], "type": "VEC3"}, "accessor_buffer_Cube.012_2": {"bufferView": "bufferView_buffer_Cube.012_0", "byteOffset": 576, "byteStride": 8, "componentType": 5126, "count": 24, "max": [0.9607211351394653, 0.8334089070558548], "min": [0.7923474907875061, 0.21733713150024414], "type": "VEC2"}, "accessor_buffer_Cube.012_3": {"bufferView": "bufferView_buffer_Cube.012_1", "byteOffset": 0, "byteStride": 2, "componentType": 5123, "count": 36, "max": [23], "min": [0], "type": "SCALAR"}, "accessor_buffer_Cube.013_0": {"bufferView": "bufferView_buffer_Cube.013_0", "byteOffset": 0, "byteStride": 12, "componentType": 5126, "count": 24, "max": [0.08307027816772461, 0.05671858787536621, 1.3027584552764893], "min": [-0.08307027816772461, -0.05671858787536621, -1.3027584552764893], "type": "VEC3"}, "accessor_buffer_Cube.013_1": {"bufferView": "bufferView_buffer_Cube.013_0", "byteOffset": 288, "byteStride": 12, "componentType": 5126, "count": 24, "max": [0.5773491859436035, 0.5773491859436035, 0.5773491859436035], "min": [-0.5773491859436035, -0.5773491859436035, -0.5773491859436035], "type": "VEC3"}, "accessor_buffer_Cube.013_2": {"bufferView": "bufferView_buffer_Cube.013_0", "byteOffset": 576, "byteStride": 8, "componentType": 5126, "count": 24, "max": [0.9724419713020325, 0.617946982383728], "min": [0.7923474907875061, 0.1789432168006897], "type": "VEC2"}, "accessor_buffer_Cube.013_3": {"bufferView": "bufferView_buffer_Cube.013_1", "byteOffset": 0, "byteStride": 2, "componentType": 5123, "count": 36, "max": [23], "min": [0], "type": "SCALAR"}, "accessor_buffer_Cube.014_0": {"bufferView": "bufferView_buffer_Cube.014_0", "byteOffset": 0, "byteStride": 12, "componentType": 5126, "count": 24, "max": [0.08307027816772461, 0.05671858787536621, 1.3027584552764893], "min": [-0.08307027816772461, -0.05671858787536621, -1.3027584552764893], "type": "VEC3"}, "accessor_buffer_Cube.014_1": {"bufferView": "bufferView_buffer_Cube.014_0", "byteOffset": 288, "byteStride": 12, "componentType": 5126, "count": 24, "max": [0.5773491859436035, 0.5773491859436035, 0.5773491859436035], "min": [-0.5773491859436035, -0.5773491859436035, -0.5773491859436035], "type": "VEC3"}, "accessor_buffer_Cube.014_2": {"bufferView": "bufferView_buffer_Cube.014_0", "byteOffset": 576, "byteStride": 8, "componentType": 5126, "count": 24, "max": [0.9729692935943604, 0.8334089070558548], "min": [0.780626654624939, 0.1789432168006897], "type": "VEC2"}, "accessor_buffer_Cube.014_3": {"bufferView": "bufferView_buffer_Cube.014_1", "byteOffset": 0, "byteStride": 2, "componentType": 5123, "count": 36, "max": [23], "min": [0], "type": "SCALAR"}}, "asset": {"profile": {"api": "WebGL", "version": "1.0.3"}, "version": "1.0"}, "bufferViews": {"bufferView_buffer_Cube.002_0": {"buffer": "buffer_Cube.002", "byteLength": 768, "byteOffset": 0, "target": 34962}, "bufferView_buffer_Cube.002_1": {"buffer": "buffer_Cube.002", "byteLength": 72, "byteOffset": 768, "target": 34963}, "bufferView_buffer_Cube.004_0": {"buffer": "buffer_Cube.004", "byteLength": 768, "byteOffset": 0, "target": 34962}, "bufferView_buffer_Cube.004_1": {"buffer": "buffer_Cube.004", "byteLength": 72, "byteOffset": 768, "target": 34963}, "bufferView_buffer_Cube.005_0": {"buffer": "buffer_Cube.005", "byteLength": 768, "byteOffset": 0, "target": 34962}, "bufferView_buffer_Cube.005_1": {"buffer": "buffer_Cube.005", "byteLength": 72, "byteOffset": 768, "target": 34963}, "bufferView_buffer_Cube.006_0": {"buffer": "buffer_Cube.006", "byteLength": 768, "byteOffset": 0, "target": 34962}, "bufferView_buffer_Cube.006_1": {"buffer": "buffer_Cube.006", "byteLength": 72, "byteOffset": 768, "target": 34963}, "bufferView_buffer_Cube.007_0": {"buffer": "buffer_Cube.007", "byteLength": 768, "byteOffset": 0, "target": 34962}, "bufferView_buffer_Cube.007_1": {"buffer": "buffer_Cube.007", "byteLength": 72, "byteOffset": 768, "target": 34963}, "bufferView_buffer_Cube.008_0": {"buffer": "buffer_Cube.008", "byteLength": 768, "byteOffset": 0, "target": 34962}, "bufferView_buffer_Cube.008_1": {"buffer": "buffer_Cube.008", "byteLength": 72, "byteOffset": 768, "target": 34963}, "bufferView_buffer_Cube.009_0": {"buffer": "buffer_Cube.009", "byteLength": 768, "byteOffset": 0, "target": 34962}, "bufferView_buffer_Cube.009_1": {"buffer": "buffer_Cube.009", "byteLength": 72, "byteOffset": 768, "target": 34963}, "bufferView_buffer_Cube.012_0": {"buffer": "buffer_Cube.012", "byteLength": 768, "byteOffset": 0, "target": 34962}, "bufferView_buffer_Cube.012_1": {"buffer": "buffer_Cube.012", "byteLength": 72, "byteOffset": 768, "target": 34963}, "bufferView_buffer_Cube.013_0": {"buffer": "buffer_Cube.013", "byteLength": 768, "byteOffset": 0, "target": 34962}, "bufferView_buffer_Cube.013_1": {"buffer": "buffer_Cube.013", "byteLength": 72, "byteOffset": 768, "target": 34963}, "bufferView_buffer_Cube.014_0": {"buffer": "buffer_Cube.014", "byteLength": 768, "byteOffset": 0, "target": 34962}, "bufferView_buffer_Cube.014_1": {"buffer": "buffer_Cube.014", "byteLength": 72, "byteOffset": 768, "target": 34963}}, "buffers": {"buffer_Cube.002": {"byteLength": 840, "type": "arraybuffer", "uri": "data:text/plain;base64,"}, "buffer_Cube.004": {"byteLength": 840, "type": "arraybuffer", "uri": "data:text/plain;base64,"}, "buffer_Cube.005": {"byteLength": 840, "type": "arraybuffer", "uri": "data:text/plain;base64,"}, "buffer_Cube.006": {"byteLength": 840, "type": "arraybuffer", "uri": "data:text/plain;base64,"}, "buffer_Cube.007": {"byteLength": 840, "type": "arraybuffer", "uri": "data:text/plain;base64,"}, "buffer_Cube.008": {"byteLength": 840, "type": "arraybuffer", "uri": "data:text/plain;base64,"}, "buffer_Cube.009": {"byteLength": 840, "type": "arraybuffer", "uri": "data:text/plain;base64,"}, "buffer_Cube.012": {"byteLength": 840, "type": "arraybuffer", "uri": "data:text/plain;base64,"}, "buffer_Cube.013": {"byteLength": 840, "type": "arraybuffer", "uri": "data:text/plain;base64,"}, "buffer_Cube.014": {"byteLength": 840, "type": "arraybuffer", "uri": "data:text/plain;base64,"}}, "extensions": {"KHR_materials_common": {"lights": {}}}, "extensionsUsed": ["KHR_materials_common"], "images": {"image_plane_atlas_baked_img": {"uri": "wright_flyer_atlas_baked.jpg"}}, "materials": {"material_plane_body_mat": {"extensions": {"KHR_materials_common": {"technique": "CONSTANT", "values": {"ambient": [1.0, 1.0, 1.0, 1.0], "diffuse": "texture_plane_atlas_baked_tex", "doubleSided": false, "emission": "texture_plane_atlas_baked_tex", "shininess": 50, "specular": [0.5, 0.5, 0.5, 1.0], "transparency": 1.0, "transparent": false}}}, "name": "plane_body_mat"}}, "meshes": {"mesh_Cube.002": {"name": "Cube.002", "primitives": [{"attributes": {"NORMAL": "accessor_buffer_Cube.002_1", "POSITION": "accessor_buffer_Cube.002_0", "TEXCOORD_0": "accessor_buffer_Cube.002_2"}, "indices": "accessor_buffer_Cube.002_3", "material": "material_plane_body_mat", "mode": 4}]}, "mesh_Cube.004": {"name": "Cube.004", "primitives": [{"attributes": {"NORMAL": "accessor_buffer_Cube.004_1", "POSITION": "accessor_buffer_Cube.004_0", "TEXCOORD_0": "accessor_buffer_Cube.004_2"}, "indices": "accessor_buffer_Cube.004_3", "material": "material_plane_body_mat", "mode": 4}]}, "mesh_Cube.005": {"name": "Cube.005", "primitives": [{"attributes": {"NORMAL": "accessor_buffer_Cube.005_1", "POSITION": "accessor_buffer_Cube.005_0", "TEXCOORD_0": "accessor_buffer_Cube.005_2"}, "indices": "accessor_buffer_Cube.005_3", "material": "material_plane_body_mat", "mode": 4}]}, "mesh_Cube.006": {"name": "Cube.006", "primitives": [{"attributes": {"NORMAL": "accessor_buffer_Cube.006_1", "POSITION": "accessor_buffer_Cube.006_0", "TEXCOORD_0": "accessor_buffer_Cube.006_2"}, "indices": "accessor_buffer_Cube.006_3", "material": "material_plane_body_mat", "mode": 4}]}, "mesh_Cube.007": {"name": "Cube.007", "primitives": [{"attributes": {"NORMAL": "accessor_buffer_Cube.007_1", "POSITION": "accessor_buffer_Cube.007_0", "TEXCOORD_0": "accessor_buffer_Cube.007_2"}, "indices": "accessor_buffer_Cube.007_3", "material": "material_plane_body_mat", "mode": 4}]}, "mesh_Cube.008": {"name": "Cube.008", "primitives": [{"attributes": {"NORMAL": "accessor_buffer_Cube.008_1", "POSITION": "accessor_buffer_Cube.008_0", "TEXCOORD_0": "accessor_buffer_Cube.008_2"}, "indices": "accessor_buffer_Cube.008_3", "material": "material_plane_body_mat", "mode": 4}]}, "mesh_Cube.009": {"name": "Cube.009", "primitives": [{"attributes": {"NORMAL": "accessor_buffer_Cube.009_1", "POSITION": "accessor_buffer_Cube.009_0", "TEXCOORD_0": "accessor_buffer_Cube.009_2"}, "indices": "accessor_buffer_Cube.009_3", "material": "material_plane_body_mat", "mode": 4}]}, "mesh_Cube.012": {"name": "Cube.012", "primitives": [{"attributes": {"NORMAL": "accessor_buffer_Cube.012_1", "POSITION": "accessor_buffer_Cube.012_0", "TEXCOORD_0": "accessor_buffer_Cube.012_2"}, "indices": "accessor_buffer_Cube.012_3", "material": "material_plane_body_mat", "mode": 4}]}, "mesh_Cube.013": {"name": "Cube.013", "primitives": [{"attributes": {"NORMAL": "accessor_buffer_Cube.013_1", "POSITION": "accessor_buffer_Cube.013_0", "TEXCOORD_0": "accessor_buffer_Cube.013_2"}, "indices": "accessor_buffer_Cube.013_3", "material": "material_plane_body_mat", "mode": 4}]}, "mesh_Cube.014": {"name": "Cube.014", "primitives": [{"attributes": {"NORMAL": "accessor_buffer_Cube.014_1", "POSITION": "accessor_buffer_Cube.014_0", "TEXCOORD_0": "accessor_buffer_Cube.014_2"}, "indices": "accessor_buffer_Cube.014_3", "material": "material_plane_body_mat", "mode": 4}]}}, "nodes": {"node_Cube": {"children": [], "matrix": [1.0, 0.0, 0.0, 0.0, 0.0, 1.0, 0.0, 0.0, 0.0, 0.0, 1.0, 0.0, 1.6581268310546875, 1.306044340133667, 0.9519425630569458, 1.0], "meshes": ["mesh_Cube.013"], "name": "Cube"}, "node_Cube.001": {"children": [], "matrix": [1.0, 0.0, 0.0, 0.0, 0.0, 1.0, 0.0, 0.0, 0.0, 0.0, 1.0, 0.0, 0.0, 0.0, 1.8660194873809814, 1.0], "meshes": ["mesh_Cube.002"], "name": "Cube.001"}, "node_Cube.002": {"children": ["node_Cube", "node_Cube.001", "node_Cube.003", "node_Cube.004", "node_Cube.005", "node_Cube.006", "node_Cube.007", "node_Cube.008", "node_Cube.009"], "matrix": [1.0, 0.0, 0.0, 0.0, 0.0, 1.0, 0.0, 0.0, 0.0, 0.0, 1.0, 0.0, 0.0, 0.3588499128818512, 0.605238676071167, 1.0], "meshes": ["mesh_Cube.004"], "name": "Cube.002"}, "node_Cube.003": {"children": [], "matrix": [1.0, 0.0, 0.0, 0.0, 0.0, 1.0, 0.0, 0.0, 0.0, 0.0, 1.0, 0.0, 0.0, -3.0143394470214844, 0.8181777000427246, 1.0], "meshes": ["mesh_Cube.005"], "name": "Cube.003"}, "node_Cube.004": {"children": [], "matrix": [1.0, 0.0, 0.0, 0.0, 0.0, 1.0, 0.0, 0.0, 0.0, 0.0, 1.0, 0.0, 0.0, -3.0143394470214844, 0.24401789903640747, 1.0], "meshes": ["mesh_Cube.006"], "name": "Cube.004"}, "node_Cube.005": {"children": [], "matrix": [1.0, 0.0, 0.0, 0.0, 0.0, 1.0, 0.0, 0.0, 0.0, 0.0, 1.0, 0.0, 0.24089458584785461, 2.7312464714050293, 0.5490403175354004, 1.0], "meshes": ["mesh_Cube.007"], "name": "Cube.005"}, "node_Cube.006": {"children": [], "matrix": [1.0, 0.0, 0.0, 0.0, 0.0, 1.0, 0.0, 0.0, 0.0, 0.0, 1.0, 0.0, -0.19936105608940125, 2.7312464714050293, 0.5490403175354004, 1.0], "meshes": ["mesh_Cube.008"], "name": "Cube.006"}, "node_Cube.007": {"children": [], "matrix": [1.0, 0.0, 0.0, 0.0, 0.0, 1.0, 0.0, 0.0, 0.0, 0.0, 1.0, 0.0, 0.772985577583313, -0.3588499128818512, -0.5616130828857422, 1.0], "meshes": ["mesh_Cube.009"], "name": "Cube.007"}, "node_Cube.008": {"children": [], "matrix": [1.0, 0.0, 0.0, 0.0, 0.0, 1.0, 0.0, 0.0, 0.0, 0.0, 1.0, 0.0, -0.772985577583313, -0.3588499128818512, -0.5616130828857422, 1.0], "meshes": ["mesh_Cube.012"], "name": "Cube.008"}, "node_Cube.009": {"children": [], "matrix": [1.0, 0.0, 0.0, 0.0, 0.0, 1.0, 0.0, 0.0, 0.0, 0.0, 1.0, 0.0, -1.6581268310546875, 1.306044340133667, 0.9519425630569458, 1.0], "meshes": ["mesh_Cube.014"], "name": "Cube.009"}, "node_scene_Scene_root": {"children": ["node_Cube.002"], "matrix": [1.0, 0.0, 0.0, 0.0, 0.0, 0.0, -1.0, 0.0, 0.0, 1.0, 0.0, 0.0, 0.0, 0.0, 0.0, 1.0], "name": "node_scene_Scene_root"}}, "samplers": {"sampler_default": {}}, "scene": "scene_Scene", "scenes": {"scene_Scene": {"extras": {"active_camera": "camera_Camera", "background_color": [0.06480327248573303, 0.02518685907125473, 0.08650046586990356], "frames_per_second": 24}, "name": "Scene", "nodes": ["node_scene_Scene_root"]}}, "textures": {"texture_plane_atlas_baked_tex": {"format": 35906, "internalFormat": 35906, "sampler": "sampler_default", "source": "image_plane_atlas_baked_img"}}}